<svg width="762" height="284" viewBox="0 0 762 284" fill="none" xmlns="http://www.w3.org/2000/svg">
<path d="M517.35 0.720006H571.73C573.706 0.720536 575.6 1.50561 576.997 2.90265C578.394 4.29968 579.179 6.19431 579.18 8.17001V9.62001C579.18 15.4901 578.024 21.3027 575.777 26.726C573.531 32.1492 570.238 37.0769 566.088 41.2277C561.937 45.3785 557.009 48.671 551.586 50.9174C546.163 53.1638 540.35 54.32 534.48 54.32H504.93C503.952 54.32 502.983 54.1273 502.079 53.7529C501.175 53.3785 500.354 52.8298 499.662 52.138C498.97 51.4462 498.421 50.6249 498.047 49.721C497.673 48.8171 497.48 47.8484 497.48 46.87V20.59C497.479 17.9803 497.992 15.3961 498.991 12.9848C499.989 10.5736 501.452 8.3826 503.297 6.53701C505.142 4.69119 507.333 3.22732 509.744 2.22917C512.156 1.23102 514.74 0.718184 517.35 0.720006V0.720006Z" fill="white"/>
<path d="M359.38 70.22L273.63 277.15C272.879 278.964 271.606 280.514 269.974 281.605C268.342 282.696 266.423 283.279 264.46 283.28H222C221.189 283.273 220.392 283.069 219.677 282.685C218.963 282.301 218.352 281.75 217.899 281.077C217.445 280.405 217.162 279.633 217.073 278.827C216.984 278.02 217.093 277.205 217.39 276.45L233.9 235.45C234.395 234.226 234.641 232.915 234.622 231.594C234.603 230.273 234.32 228.97 233.79 227.76L165.09 70.31C164.758 69.5517 164.62 68.7228 164.688 67.8978C164.756 67.0729 165.027 66.2776 165.478 65.5836C165.929 64.8896 166.546 64.3185 167.272 63.9217C167.999 63.5248 168.812 63.3146 169.64 63.31H212.81C214.783 63.3096 216.711 63.8974 218.348 64.9982C219.985 66.099 221.256 67.6629 222 69.49L261.94 167.16C262.023 167.367 262.151 167.553 262.315 167.704C262.479 167.855 262.675 167.967 262.888 168.033C263.101 168.098 263.326 168.115 263.546 168.082C263.767 168.05 263.977 167.968 264.162 167.843C264.409 167.675 264.6 167.437 264.71 167.16L303.51 69.6C304.251 67.7558 305.525 66.1743 307.169 65.0574C308.813 63.9406 310.753 63.3392 312.74 63.33H354.79C356.023 63.3392 357.209 63.8037 358.12 64.6344C359.031 65.4651 359.603 66.6032 359.726 67.83C359.808 68.643 359.689 69.4637 359.38 70.22V70.22ZM761 147.09V241.72C760.997 243.695 760.212 245.588 758.815 246.985C757.418 248.382 755.525 249.167 753.55 249.17H716.21C714.235 249.167 712.342 248.382 710.945 246.985C709.548 245.588 708.763 243.695 708.76 241.72V152.67C708.76 123.17 691.22 110.01 673.27 110.01C654.53 110.01 631.41 120.01 631.41 153.87V241.72C631.407 243.695 630.622 245.588 629.225 246.985C627.828 248.382 625.935 249.167 623.96 249.17H586.62C584.645 249.167 582.752 248.382 581.355 246.985C579.958 245.588 579.173 243.695 579.17 241.72V70.8C579.173 68.825 579.958 66.9316 581.355 65.535C582.752 64.1384 584.645 63.3527 586.62 63.35H624C625.975 63.3527 627.868 64.1384 629.265 65.535C630.662 66.9316 631.447 68.825 631.45 70.8V87.06C631.447 87.3977 631.559 87.7264 631.769 87.9912C631.978 88.256 632.272 88.4409 632.602 88.515C632.931 88.5898 633.276 88.5498 633.58 88.4016C633.883 88.2533 634.127 88.0058 634.27 87.7C644.92 67.39 670.67 58.57 687.27 58.57C735.88 58.57 761.4 91.27 761 147.09V147.09Z" fill="white"/>
<path d="M357.28 155.86C357.28 96.86 404.34 58.57 457.37 58.57C510.4 58.57 557.45 96.85 557.45 155.86C557.45 214.48 510.4 252.76 457.37 252.76C404.34 252.76 357.28 214.48 357.28 155.86V155.86ZM504.42 155.86C504.42 126.75 483.28 107.22 457.42 107.22C431.56 107.22 410.42 126.75 410.42 155.86C410.42 184.57 431.55 204.11 457.42 204.11C483.29 204.11 504.42 184.57 504.42 155.86Z" fill="white"/>
<path d="M103.48 204.11C74 204.11 54 183 54 155.46C54 128.35 73.94 107.22 103.45 107.22C109.442 107.248 115.382 108.328 121 110.41C122.613 111.008 124.382 111.029 126.009 110.469C127.635 109.91 129.017 108.804 129.92 107.34L147.7 78.28C148.249 77.3878 148.604 76.3899 148.743 75.3514C148.881 74.3128 148.799 73.2568 148.502 72.252C148.205 71.2472 147.699 70.3162 147.019 69.5198C146.338 68.7234 145.496 68.0795 144.55 67.63C131.561 61.5658 117.384 58.4709 103.05 58.57C48.82 58.57 0.970001 96.45 0.970001 155.46C0.970001 214.47 48.82 252.76 103.05 252.76C133.85 252.76 159.05 239.91 176.57 219.31C177.248 218.516 177.753 217.588 178.051 216.587C178.35 215.586 178.435 214.534 178.302 213.498C178.17 212.461 177.821 211.465 177.28 210.571C176.739 209.678 176.017 208.908 175.16 208.31L148.02 189.2C146.563 188.193 144.796 187.735 143.033 187.907C141.27 188.079 139.625 188.87 138.39 190.14C129.61 198.89 116.4 204.11 103.48 204.11V204.11Z" fill="white"/>
</svg>
