<svg width="140" height="30" viewBox="0 0 140 30" fill="none" xmlns="http://www.w3.org/2000/svg">
<path d="M10.878 8.325V13.579H8.251V28.971H1.924V13.579H0V8.325H1.924V7.548C1.924 4.9333 2.6147 3.0217 3.996 1.813C5.402 0.6043 7.5973 0 10.582 0V5.365C9.7433 5.365 9.139 5.5253 8.769 5.846C8.4237 6.1667 8.251 6.734 8.251 7.548V8.325H10.878Z" fill="white"/>
<path d="M27.9697 22.422C28.8824 21.534 29.3387 20.276 29.3387 18.648C29.3387 17.02 28.8824 15.7743 27.9697 14.911C27.057 14.023 26.0087 13.579 24.8247 13.579C23.6407 13.579 22.5924 14.023 21.6797 14.911C20.767 15.799 20.3107 17.057 20.3107 18.685C20.3107 20.313 20.767 21.571 21.6797 22.459C22.5924 23.3223 23.6407 23.754 24.8247 23.754C26.0087 23.754 27.057 23.31 27.9697 22.422ZM16.6107 26.27C14.7854 24.2967 13.8727 21.7683 13.8727 18.685C13.8727 15.6017 14.7854 13.0733 16.6107 11.1C18.436 9.10203 20.656 8.10303 23.2707 8.10303C25.91 8.10303 27.9327 9.07733 29.3387 11.026V8.32503H35.6657H38.3574V15H35.6657V22H38.3574V29L35.6657 28.971H29.3387V25.974C27.8094 28.1447 25.762 29.23 23.1967 29.23C20.6314 29.23 18.436 28.2433 16.6107 26.27Z" fill="white"/>
<path d="M52.1844 8.32503V11.359C53.4918 9.18833 55.5761 8.10303 58.4374 8.10303C60.8054 8.10303 62.7171 8.89233 64.1724 10.471C65.6524 12.0497 66.3924 14.1957 66.3924 16.909V28.971H60.1024V17.76C60.1024 16.428 59.7448 15.4043 59.0294 14.689C58.3388 13.949 57.3768 13.579 56.1434 13.579C54.9101 13.579 53.9358 13.949 53.2204 14.689C52.5298 15.4043 52.1844 16.428 52.1844 17.76V28.971H45.8574L43.3574 29V21.9855H45.8574V15H43.3574V8.32503H45.8574H52.1844Z" fill="white"/>
<path d="M82.954 22.422C83.867 21.534 84.323 20.276 84.323 18.648C84.323 17.02 83.867 15.7743 82.954 14.911C82.042 14.023 80.993 13.579 79.8094 13.579C78.6254 13.579 77.5771 14.023 76.6644 14.911C75.7518 15.799 75.2954 17.057 75.2954 18.685C75.2954 20.313 75.7518 21.571 76.6644 22.459C77.5771 23.3223 78.6254 23.754 79.8094 23.754C80.993 23.754 82.042 23.31 82.954 22.422ZM71.5954 26.27C69.7701 24.2967 68.8574 21.7683 68.8574 18.685C68.8574 15.6017 69.7701 13.0733 71.5954 11.1C73.4208 9.10203 75.6407 8.10303 78.2554 8.10303C80.895 8.10303 82.917 9.07733 84.323 11.026V8.32503H90.65V28.971H84.323V25.974C82.794 28.1447 80.747 29.23 78.1814 29.23C75.6161 29.23 73.4208 28.2433 71.5954 26.27Z" fill="white"/>
<path d="M101.946 28.9708H95.619V1.59082H101.946V16.9458L108.347 8.32482H116.857L108.014 18.8698L116.857 28.9708H108.458L101.946 20.7198V28.9708Z" fill="white"/>
<path d="M132.161 22.422C133.074 21.534 133.53 20.276 133.53 18.648C133.53 17.02 133.074 15.7743 132.161 14.911C131.249 14.023 130.2 13.579 129.016 13.579C127.832 13.579 126.784 14.023 125.871 14.911C124.959 15.799 124.502 17.057 124.502 18.685C124.502 20.313 124.959 21.571 125.871 22.459C126.784 23.3223 127.832 23.754 129.016 23.754C130.2 23.754 131.249 23.31 132.161 22.422ZM120.802 26.27C118.977 24.2967 118.064 21.7683 118.064 18.685C118.064 15.6017 118.977 13.0733 120.802 11.1C122.628 9.10203 124.848 8.10303 127.462 8.10303C130.102 8.10303 132.124 9.07733 133.53 11.026V8.32503H139.857V28.971H133.53V25.974C132.001 28.1447 129.954 29.23 127.388 29.23C124.823 29.23 122.628 28.2433 120.802 26.27Z" fill="white"/>
</svg>
