<svg width="1063" height="89" viewBox="0 0 1063 89" fill="none" xmlns="http://www.w3.org/2000/svg">
<path d="M75.7939 87.8157H49.5488V51.6946H26.2451V87.8157H0V1.24351H26.2451V33.9894H49.5488V1.24351H75.7939V87.8157Z" fill="white"/>
<path d="M145.554 87.8157L141.407 70.9395H117.575L113.427 87.8157H84.9948L111.843 1.24351H146.459L173.685 87.8157H145.554ZM137.334 53.2342L132.884 33.8709C132.382 31.6997 131.904 29.5877 131.452 27.5349C131.049 25.4821 130.672 23.5281 130.32 21.6727C130.019 19.7778 129.742 18.0211 129.491 16.4025C129.29 17.9421 129.013 19.6396 128.661 21.495C128.359 23.3504 127.982 25.3045 127.53 27.3573C127.077 29.3706 126.6 31.4629 126.097 33.6341L121.421 53.2342H137.334Z" fill="white"/>
<path d="M239.976 61.5243C239.976 66.8931 238.543 71.65 235.678 75.7951C232.862 79.9006 228.865 83.1377 223.686 85.5063C218.508 87.8354 212.399 89 205.36 89C202.192 89 199.1 88.8224 196.084 88.4671C193.117 88.1513 190.151 87.5986 187.185 86.8091C184.218 86.0195 181.151 84.9339 177.984 83.5522V62.7086C182.308 64.9982 186.732 66.7944 191.257 68.0971C195.832 69.3604 200.005 69.992 203.776 69.992C205.938 69.992 207.698 69.7157 209.055 69.163C210.463 68.6103 211.494 67.8603 212.148 66.9128C212.851 65.9259 213.203 64.8008 213.203 63.5376C213.203 62.2743 212.927 61.1098 212.374 60.0439C211.821 58.9386 210.589 57.7345 208.678 56.4318C206.768 55.0896 203.801 53.4316 199.779 51.4578C196.561 49.8392 193.645 48.2207 191.031 46.6021C188.416 44.9441 186.179 43.1479 184.319 41.2136C182.509 39.2397 181.101 36.9698 180.095 34.4039C179.14 31.8379 178.662 28.8179 178.662 25.344C178.662 20.212 179.945 15.7512 182.509 11.9614C185.073 8.17166 188.844 5.23065 193.821 3.13839C198.799 1.04613 204.907 0 212.148 0C216.723 0 221.323 0.513196 225.949 1.53959C230.574 2.56598 235.25 4.12531 239.976 6.21757L232.963 24.2781C229.141 22.3832 225.597 20.9818 222.329 20.0739C219.061 19.1659 216.019 18.7119 213.203 18.7119C211.343 18.7119 209.81 18.9685 208.603 19.4817C207.447 19.9554 206.592 20.6068 206.039 21.4358C205.486 22.2648 205.209 23.2122 205.209 24.2781C205.209 25.8177 205.536 27.1402 206.19 28.2455C206.843 29.3509 208.176 30.5352 210.187 31.7984C212.248 33.0222 215.365 34.6407 219.538 36.654C223.963 38.7858 227.683 41.0359 230.7 43.4045C233.767 45.7731 236.08 48.4181 237.638 51.3393C239.197 54.2606 239.976 57.6556 239.976 61.5243Z" fill="white"/>
<path d="M252.948 87.8157V1.24351H279.193V70.1104H307.927V87.8157H252.948Z" fill="white"/>
<path d="M372.257 87.8157H319.164V1.24351H372.257V18.7119H345.409V34.3446H370.297V51.813H345.409V70.1104H372.257V87.8157Z" fill="white"/>
<path d="M417.13 1.24351C425.678 1.24351 432.792 2.19095 438.473 4.08583C444.155 5.98071 448.403 8.82302 451.219 12.6128C454.034 16.3631 455.442 21.1002 455.442 26.8244C455.442 30.1799 454.889 33.2788 453.783 36.1211C452.677 38.9634 451.018 41.5491 448.805 43.8782C446.593 46.2074 443.803 48.2799 440.434 50.0958L463.436 87.8157H434.552L417.281 55.3067H413.887V87.8157H387.642V1.24351H417.13ZM416.829 18.4751H413.887V39.3187H416.678C420.6 39.3187 423.541 38.3713 425.502 36.4764C427.463 34.5815 428.443 31.7195 428.443 27.8902C428.443 24.7321 427.463 22.3832 425.502 20.8436C423.591 19.2646 420.7 18.4751 416.829 18.4751Z" fill="white"/>
<path d="M528.974 61.5243C528.974 66.8931 527.541 71.65 524.675 75.7951C521.859 79.9006 517.862 83.1377 512.684 85.5063C507.505 87.8354 501.396 89 494.357 89C491.19 89 488.098 88.8224 485.081 88.4671C482.115 88.1513 479.148 87.5986 476.182 86.8091C473.215 86.0195 470.148 84.9339 466.981 83.5522V62.7086C471.305 64.9982 475.729 66.7944 480.254 68.0971C484.83 69.3604 489.003 69.992 492.773 69.992C494.935 69.992 496.695 69.7157 498.053 69.163C499.46 68.6103 500.491 67.8603 501.145 66.9128C501.849 65.9259 502.201 64.8008 502.201 63.5376C502.201 62.2743 501.924 61.1098 501.371 60.0439C500.818 58.9386 499.586 57.7345 497.676 56.4318C495.765 55.0896 492.799 53.4316 488.776 51.4578C485.559 49.8392 482.642 48.2207 480.028 46.6021C477.414 44.9441 475.176 43.1479 473.316 41.2136C471.506 39.2397 470.098 36.9698 469.093 34.4039C468.137 31.8379 467.66 28.8179 467.66 25.344C467.66 20.212 468.942 15.7512 471.506 11.9614C474.07 8.17166 477.841 5.23065 482.818 3.13839C487.796 1.04613 493.905 0 501.145 0C505.72 0 510.32 0.513196 514.946 1.53959C519.572 2.56598 524.247 4.12531 528.974 6.21757L521.96 24.2781C518.139 22.3832 514.594 20.9818 511.326 20.0739C508.058 19.1659 505.016 18.7119 502.201 18.7119C500.34 18.7119 498.807 18.9685 497.6 19.4817C496.444 19.9554 495.589 20.6068 495.036 21.4358C494.483 22.2648 494.206 23.2122 494.206 24.2781C494.206 25.8177 494.533 27.1402 495.187 28.2455C495.84 29.3509 497.173 30.5352 499.184 31.7984C501.245 33.0222 504.363 34.6407 508.536 36.654C512.96 38.7858 516.681 41.0359 519.697 43.4045C522.764 45.7731 525.077 48.4181 526.636 51.3393C528.194 54.2606 528.974 57.6556 528.974 61.5243Z" fill="white"/>
<path d="M581.464 87.8157H555.369V19.0672H535.459V1.24351H601.223V19.0672H581.464V87.8157Z" fill="white"/>
<path d="M612.988 87.8157V1.24351H639.233V87.8157H612.988Z" fill="white"/>
<path d="M683.729 87.8157H657.484V1.24351H710.276V18.7119H683.729V37.2462H708.315V54.7146H683.729V87.8157Z" fill="white"/>
<path d="M764.425 87.8157H738.331V19.0672H718.421V1.24351H784.184V19.0672H764.425V87.8157Z" fill="white"/>
<path d="M869.179 1.24351V58.4451C869.179 65.1167 867.746 70.7223 864.88 75.2621C862.014 79.802 857.816 83.2364 852.285 85.5655C846.755 87.8552 839.967 89 831.923 89C820.208 89 811.208 86.513 804.924 81.5389C798.639 76.5649 795.497 69.0446 795.497 58.978V1.24351H821.742V57.9714C821.742 62.7086 822.621 66.0641 824.381 68.0379C826.141 69.9723 828.755 70.9395 832.225 70.9395C834.688 70.9395 836.699 70.525 838.258 69.6959C839.817 68.8669 840.973 67.505 841.727 65.6101C842.481 63.6758 842.858 61.09 842.858 57.853V1.24351H869.179Z" fill="white"/>
<path d="M969.86 87.8157H939.241L910.507 33.9894H909.904C910.206 37.1475 910.432 40.0885 910.583 42.8124C910.784 45.4968 910.909 47.9443 910.96 50.155C911.06 52.3262 911.111 54.2409 911.111 55.8989V87.8157H886.751V1.24351H917.144L945.727 53.5895H946.33C946.129 50.6682 945.953 47.9443 945.802 45.4178C945.651 42.8913 945.526 40.5622 945.425 38.4305C945.325 36.2987 945.274 34.3644 945.274 32.6274V1.24351H969.86V87.8157Z" fill="white"/>
<path d="M1024.54 37.1277H1063V83.7891C1057.32 85.5655 1051.51 86.888 1045.58 87.7565C1039.7 88.5855 1033.66 89 1027.48 89C1018.43 89 1010.74 87.263 1004.4 83.7891C998.116 80.3151 993.315 75.2424 989.997 68.5709C986.678 61.8993 985.019 53.8066 985.019 44.2927C985.019 35.0157 986.904 27.0809 990.675 20.4884C994.446 13.8958 999.876 8.84276 1006.97 5.32934C1014.05 1.77645 1022.6 0 1032.61 0C1038.29 0 1043.57 0.513196 1048.44 1.53959C1053.37 2.56598 1057.67 3.86871 1061.34 5.44777L1054.03 22.324C1051.01 20.8239 1047.77 19.6791 1044.3 18.8896C1040.88 18.1 1037.28 17.7053 1033.51 17.7053C1028.84 17.7053 1024.91 18.7711 1021.75 20.9029C1018.63 22.9951 1016.27 26.0546 1014.66 30.0812C1013.1 34.1078 1012.32 39.0424 1012.32 44.8849C1012.32 50.5695 1012.95 55.3659 1014.21 59.2741C1015.46 63.1823 1017.32 66.143 1019.79 68.1564C1022.3 70.1697 1025.39 71.1763 1029.06 71.1763C1030.42 71.1763 1031.78 71.0974 1033.13 70.9395C1034.54 70.7421 1035.9 70.5052 1037.21 70.2289V54.3593H1024.54V37.1277Z" fill="white"/>
</svg>
