<svg width="166" height="71" viewBox="0 0 166 71" fill="none" xmlns="http://www.w3.org/2000/svg">
<path d="M62.9358 17.3426C64.1045 13.1525 66.442 9.42787 69.5975 6.51803C65.2148 2.50246 59.3128 0 52.7679 0C39.4444 0 29.5103 10.4754 29.5103 23.3369C29.5103 34.918 48.2683 50.6311 52.1251 53.7156C48.1514 48.8271 45.0543 43.7639 45.0543 39.8648C45.0543 29.0984 52.651 20.0197 62.9358 17.3426Z" fill="#F39200"/>
<path d="M86.3687 0C79.8823 0 73.9218 2.50246 69.5975 6.51803C72.8115 9.48607 75.149 13.2689 76.2593 17.5172C86.2519 20.427 93.4979 29.3311 93.4979 39.8648C93.4979 44.1131 90.8099 48.9434 87.3037 53.541C91.7449 50.1074 110.62 34.7434 110.62 23.3369C110.561 10.4754 99.7506 0 86.3687 0Z" fill="#F39200"/>
<path opacity="0.58" d="M69.3053 16.5279C71.7597 16.5279 74.0971 16.8771 76.2593 17.5172C75.149 13.2689 72.7531 9.48607 69.5975 6.51804C66.442 9.42787 64.1045 13.1525 62.9358 17.3426C64.9811 16.8189 67.0848 16.5279 69.3053 16.5279Z" fill="#CA9E67"/>
<path d="M69.3053 16.5279C71.7597 16.5279 74.0971 16.8771 76.2593 17.5172C75.149 13.2689 72.7531 9.48607 69.5975 6.51804C66.442 9.42787 64.1045 13.1525 62.9358 17.3426C64.9811 16.8189 67.0848 16.5279 69.3053 16.5279Z" fill="#D60B52"/>
<path opacity="0.58" d="M69.5975 38.5262C65.4486 33.5213 62.1761 28.109 62.1761 23.3369C62.1761 21.2418 62.4683 19.2631 62.9942 17.3426C52.651 20.0197 45.0543 29.0984 45.0543 39.8648C45.0543 43.7639 48.1514 48.8271 52.1251 53.7156C52.5342 54.0648 52.8263 54.2393 52.8263 54.2393C52.8263 54.2393 62.4683 47.0811 69.5975 38.5262Z" fill="#CA9E67"/>
<path d="M69.5975 38.5262C65.4486 33.5213 62.1761 28.109 62.1761 23.3369C62.1761 21.2418 62.4683 19.2631 62.9942 17.3426C52.651 20.0197 45.0543 29.0984 45.0543 39.8648C45.0543 43.7639 48.1514 48.8271 52.1251 53.7156C52.5342 54.0648 52.8263 54.2393 52.8263 54.2393C52.8263 54.2393 62.4683 47.0811 69.5975 38.5262Z" fill="#E94E1B"/>
<path opacity="0.58" d="M76.2593 17.5172C76.7852 19.3795 77.0189 21.3582 77.0189 23.3369C77.0189 28.109 73.7465 33.5213 69.5975 38.5262C76.7268 47.0811 86.3687 54.2393 86.3687 54.2393C86.3687 54.2393 86.7193 54.0066 87.3037 53.541C90.8683 49.0016 93.4979 44.1713 93.4979 39.8648C93.4979 29.3311 86.2519 20.427 76.2593 17.5172Z" fill="#CA9E67"/>
<path d="M76.2593 17.5172C76.7852 19.3795 77.0189 21.3582 77.0189 23.3369C77.0189 28.109 73.7465 33.5213 69.5975 38.5262C76.7268 47.0811 86.3687 54.2393 86.3687 54.2393C86.3687 54.2393 86.7193 54.0066 87.3037 53.541C90.8683 49.0016 93.4979 44.1713 93.4979 39.8648C93.4979 29.3311 86.2519 20.427 76.2593 17.5172Z" fill="#E94E1B"/>
<path opacity="0.58" d="M62.9358 17.3426C62.4099 19.2631 62.1177 21.2418 62.1177 23.3369C62.1177 28.109 65.3901 33.5213 69.5391 38.5262C73.6881 33.5213 76.9605 28.109 76.9605 23.3369C76.9605 21.3 76.6683 19.3795 76.2008 17.5172C73.9803 16.8771 71.6428 16.5279 69.2469 16.5279C67.0848 16.5279 64.9811 16.8189 62.9358 17.3426Z" fill="#CA9E67"/>
<path opacity="0.58" d="M62.9358 17.3426C62.4099 19.2631 62.1177 21.2418 62.1177 23.3369C62.1177 28.109 65.3901 33.5213 69.5391 38.5262C73.6881 33.5213 76.9605 28.109 76.9605 23.3369C76.9605 21.3 76.6683 19.3795 76.2008 17.5172C73.9803 16.8771 71.6428 16.5279 69.2469 16.5279C67.0848 16.5279 64.9811 16.8189 62.9358 17.3426Z" fill="#CA9E67"/>
<path d="M62.9358 17.3426C62.4099 19.2631 62.1177 21.2418 62.1177 23.3369C62.1177 28.109 65.3901 33.5213 69.5391 38.5262C73.6881 33.5213 76.9605 28.109 76.9605 23.3369C76.9605 21.3 76.6683 19.3795 76.2008 17.5172C73.9803 16.8771 71.6428 16.5279 69.2469 16.5279C67.0848 16.5279 64.9811 16.8189 62.9358 17.3426Z" fill="#E30613"/>
<path d="M69.5975 38.5262C62.4683 47.0811 52.8263 54.2393 52.8263 54.2393C52.8263 54.2393 52.5926 54.0648 52.1251 53.7156C59.2543 62.5033 69.3053 70.7672 69.3053 70.7672C69.3053 70.7672 80.116 62.7361 87.3037 53.541C86.7193 54.0066 86.3687 54.2393 86.3687 54.2393C86.3687 54.2393 76.6683 47.0811 69.5975 38.5262Z" fill="#BE1622"/>
<path d="M46.9243 58.5459V66.6352C46.9243 68.3811 46.3399 69.4869 44.0609 69.4869H2.86338C0.584362 69.4869 0 68.3811 0 66.6352V7.44918C0 5.17951 1.11029 4.59754 2.86338 4.59754H12.6807C14.4337 4.59754 15.544 5.17951 15.544 7.44918V55.6943H44.0609C46.3399 55.6943 46.9243 56.7418 46.9243 58.5459Z" fill="#FFFFFF"/>
<path d="M165.667 50.282C165.667 64.3074 154.564 71 139.312 71C126.923 71 112.665 63.9 112.665 50.1074C112.665 47.8377 113.249 47.3721 115.528 47.3721H125.112C127.391 47.3721 128.501 47.6631 128.677 50.1074C128.793 51.3877 129.261 52.668 130.547 54.1229C132.533 56.509 136.565 57.382 140.247 57.382C145.623 57.382 149.947 56.218 149.947 50.6893C149.947 45.1607 141.123 45.0443 132.709 42.4254C122.716 39.2828 113.483 35.3254 113.483 22.8131C113.483 10.0098 125.17 3.66639 137.559 3.20082C150.123 3.20082 163.914 8.9041 163.914 21.9402C163.914 24.3262 163.329 24.6754 161.05 24.6754H151.35C149.48 24.6754 149.188 23.2787 148.662 21.9984C148.253 21.009 147.785 20.1943 146.558 19.0303C144.688 17.2262 141.123 16.3533 138.143 16.3533C134.871 16.3533 129.436 17.6336 129.436 22.0566C129.436 28.0508 143.987 30.2623 147.961 31.8336C155.148 33.9869 165.667 36.8385 165.667 50.282Z" fill="#FFFFFF"/>
</svg>
