<svg xmlns="http://www.w3.org/2000/svg" width="186.969" height="110.444" viewBox="0 0 186.969 110.444"><defs><style>.a{fill:#e62c6d;}.b{fill:#FFFFFF;}</style></defs><g transform="translate(-386.937 -224.471)"><path class="a" d="M387.806,269.2s11.38-3.174,16.383-4.43,20.042-6.027,26.115-7.853,28.977-7.969,31.05-8.51,3.082-.761,4.867-.056,5.02,1.553,5.553,3.876a4.279,4.279,0,0,1-3.413,5.154c-1.731.384-37.856,8.042-40.094,8.875s-14.476,4.567-17.315,5.586-16.747,4.871-18,4.834-3.607-.157-3.607-.157l-2.019.442s-1.454-1.291,1.263-1.994,10.525-2.679,11.165-2.923,1.842-.866,1.712-1.3c-.085-.282-.915-.388-1.843-.2s-5.969.864-6.734,1.073-3.208.789-3.482.292-.467-1.381-.694-1.55S387.063,269.4,387.806,269.2Z"></path><path class="a" d="M390.511,283s25.928-8.126,35.552-10.585,37.873-10.17,38.775-10.354,4.505-.658,6.111.339,3.142,4.367,2.025,6.445-4.477,2.816-11.275,4.517-49.646,14.152-49.646,14.152l-15.54,4.56s-4,1.347-5.115-2.006c-1.505-4.51-.067-4.144.165-4.823S389.382,284.1,390.511,283Z"></path><path class="a" d="M433.914,314.845s-3.047.779-4.653-.925-15.079-57.189-17.139-61.764-4.6-12.355-4.874-13.025-.581-2.925.259-3.314,1.993.511,2.292.876.818,1.153,1.312,1.085-.215-2.489.9-2.934c1.089-.433,1.711.977,1.711.977s.456,1.1,1.066.913-.022-2.18-.218-2.576-.289-1.96.665-1.549c1.53.659,8.364,24.529,8.364,24.529l4.97,15.75s3.177,13.4,3.456,14.077,5.161,17.794,5.161,17.794a19.991,19.991,0,0,1,.571,3.223,8.822,8.822,0,0,1-1.279,4.766C435.491,314.212,434.7,314.714,433.914,314.845Z"></path><path class="a" d="M447.038,313.388s-3.332.753-4.259-.127-3.935-14.462-4.6-15.836-2.345-8.9-4.072-14.918-7.732-26.813-8.014-27.474-7.4-26.072-7.692-27.046-.224-2.581,1.188-2.841,1.891,1.186,2.014,1.762.646,2.129.646,2.129.236,1.06.856,1.012.356-1.294.356-1.294l-.609-2.576s.353-1.762,1.087-1.707,1.413,1.4,1.413,1.4.472,1.569.9,1.8.761-.864.761-.864.333-1.645.794-1.4,9.4,30.257,9.4,30.257l5.327,18.265,8.467,30.814a8.652,8.652,0,0,1-1.166,5.483C448.212,312.7,447.837,312.927,447.038,313.388Z"></path><path class="b" d="M472.118,290.818c0-2.307-1.6-3.544-4.178-3.544h-3.979v7.154h4.079c2.574,0,4.078-1.538,4.078-3.543Zm-4.246,8.19H463.96v7.021h-5.148v-23.4h9.562c5.582,0,8.96,3.311,8.96,8.091v.066c0,5.417-4.212,8.225-9.462,8.225"></path><rect class="b" width="5.148" height="23.403" transform="translate(481.383 282.627)"></rect><path class="b" d="M508.8,306.029l-11.334-14.877v14.877h-5.081v-23.4h4.746l10.966,14.41v-14.41h5.082v23.4Z"></path><path class="b" d="M533.91,306.029l-7.255-9.963-2.708,2.809v7.154H518.8v-23.4h5.148v10.231l9.495-10.231h6.218l-9.528,9.93,9.963,13.473Z"></path><path class="b" d="M469.779,334.915a11.812,11.812,0,0,1-12-12.036v-.066a11.894,11.894,0,0,1,12.2-12.1,12.076,12.076,0,0,1,9.227,3.61l-3.277,3.779a8.634,8.634,0,0,0-5.985-2.641c-3.945,0-6.787,3.277-6.787,7.288v.067c0,4.011,2.776,7.355,6.787,7.355,2.675,0,4.313-1.069,6.151-2.741l3.278,3.31a11.963,11.963,0,0,1-9.594,4.177"></path><path class="b" d="M497.8,319.1c0-2.206-1.538-3.344-4.045-3.344h-5.115v6.719h5.215c2.507,0,3.945-1.337,3.945-3.31Zm-.1,15.412-5.015-7.489h-4.045v7.489H483.49v-23.4h10.7c5.515,0,8.826,2.91,8.826,7.723v.066A7.269,7.269,0,0,1,498,326.156l5.717,8.358H497.7Z"></path><path class="b" d="M526.119,322.813a7.11,7.11,0,0,0-7.087-7.355,7,7,0,0,0-7.021,7.288v.067a7.111,7.111,0,0,0,7.088,7.355,7,7,0,0,0,7.02-7.289v-.066Zm-7.087,12.1a11.991,11.991,0,0,1-12.4-12.036v-.066a12.443,12.443,0,0,1,24.874-.067v.067a12.1,12.1,0,0,1-12.47,12.1"></path><path class="b" d="M544.248,334.848a14.9,14.9,0,0,1-9.93-3.744l3.043-3.644a10.739,10.739,0,0,0,6.988,2.842c2.1,0,3.376-.836,3.376-2.206v-.066c0-1.3-.8-1.973-4.713-2.976-4.713-1.2-7.756-2.508-7.756-7.155v-.066c0-4.245,3.411-7.054,8.19-7.054a13.533,13.533,0,0,1,8.692,2.976l-2.674,3.878a10.986,10.986,0,0,0-6.084-2.307c-1.973,0-3.009.9-3.009,2.039v.067c0,1.537,1,2.039,5.047,3.076,4.749,1.236,7.423,2.942,7.423,7.02v.067c0,4.646-3.545,7.253-8.593,7.253"></path><path class="b" d="M565.314,334.848a14.9,14.9,0,0,1-9.93-3.744l3.043-3.644a10.738,10.738,0,0,0,6.987,2.842c2.106,0,3.377-.836,3.377-2.206v-.066c0-1.3-.8-1.973-4.713-2.976-4.713-1.2-7.757-2.508-7.757-7.155v-.066c0-4.245,3.411-7.054,8.19-7.054a13.533,13.533,0,0,1,8.692,2.976l-2.674,3.878a10.986,10.986,0,0,0-6.084-2.307c-1.973,0-3.009.9-3.009,2.039v.067c0,1.537,1,2.039,5.048,3.076,4.748,1.236,7.422,2.942,7.422,7.02v.067c0,4.646-3.544,7.253-8.592,7.253"></path></g></svg>