<svg width="102" height="30" viewBox="0 0 102 30" fill="none" xmlns="http://www.w3.org/2000/svg">
<path d="M32.4587 6.1824C32.3471 6.33772 32.2162 6.47818 32.0691 6.6004C31.8987 6.71805 31.6965 6.78105 31.4895 6.781H30.3498C30.1427 6.78105 29.9406 6.71805 29.7702 6.6004C29.6135 6.46888 29.4732 6.31904 29.3523 6.1541C29.304 6.0836 29.2595 6.01056 29.219 5.93529L29.7131 5.7644C29.8205 5.95977 29.9738 6.12603 30.1599 6.2488C30.2123 6.27682 30.2714 6.28999 30.3308 6.2869H31.4802C31.5366 6.28999 31.5927 6.27677 31.6418 6.2488C31.8147 6.14345 31.9584 5.99639 32.0598 5.8211C32.0809 5.77009 32.0905 5.71506 32.0881 5.6599V5.3182C32.0831 5.22499 32.0432 5.13706 31.9764 5.07191C31.9095 5.00677 31.8206 4.96917 31.7273 4.9666L30.1599 4.85229C29.938 4.84046 29.729 4.74448 29.5754 4.58392C29.4218 4.42336 29.3352 4.21029 29.3332 3.9881V3.7029C29.3293 3.52446 29.3789 3.34894 29.4758 3.199C29.5872 3.04369 29.718 2.90322 29.865 2.781C30.0354 2.66348 30.2375 2.60049 30.4445 2.6004H31.4328C31.6398 2.60049 31.8419 2.66348 32.0124 2.781C32.1719 2.91612 32.3152 3.06916 32.4397 3.2371C32.4913 3.30184 32.5358 3.37191 32.5725 3.4461L32.0788 3.617C31.9678 3.42129 31.8114 3.25515 31.6228 3.1326C31.5737 3.10458 31.5175 3.09135 31.4611 3.0945H30.4543C30.3949 3.09142 30.3358 3.10459 30.2834 3.1326C30.1135 3.23452 29.9728 3.37848 29.8747 3.5506C29.8536 3.60159 29.8439 3.65658 29.8464 3.7117V3.9969C29.8513 4.09013 29.8912 4.17808 29.958 4.24323C30.0249 4.30837 30.1139 4.34593 30.2072 4.3484L31.7746 4.4724C31.9965 4.48418 32.2056 4.58015 32.3592 4.74075C32.5128 4.90134 32.5994 5.11448 32.6013 5.3367V5.6785C32.6052 5.85695 32.5555 6.03247 32.4587 6.1824V6.1824Z" fill="white"/>
<path d="M38.0919 6.73319H37.3795L36.3727 3.24689L35.4034 6.73319H34.691L33.5035 2.64819H34.0548L35.0235 6.18239H35.0807L36.0118 2.64819H36.7433L37.712 6.18239H37.7692L38.7003 2.64819H39.2418L38.0919 6.73319Z" fill="white"/>
<path d="M40.1912 1.59348V0.986084H40.7806V1.59348H40.1912ZM40.2293 6.73318V2.64818H40.7425V6.73318H40.2293Z" fill="white"/>
<path d="M45.1599 6.1824C45.0482 6.33772 44.9173 6.47818 44.7702 6.6004C44.5998 6.71807 44.3976 6.78106 44.1906 6.781H43.051C42.8439 6.78105 42.6417 6.71806 42.4713 6.6004C42.3147 6.46885 42.1744 6.31902 42.0533 6.1541C42.0051 6.08355 41.9606 6.01051 41.92 5.93529L42.4142 5.7644C42.5216 5.95979 42.6749 6.12606 42.861 6.2488C42.9134 6.27682 42.9725 6.28999 43.0318 6.2869H44.1813C44.2378 6.28998 44.2939 6.27675 44.343 6.2488C44.5158 6.14342 44.6596 5.99637 44.761 5.8211C44.7821 5.77008 44.7917 5.71506 44.7892 5.6599V5.3182C44.7843 5.22497 44.7444 5.13704 44.6775 5.07189C44.6106 5.00674 44.5217 4.96915 44.4283 4.9666L42.861 4.85229C42.6392 4.84047 42.4301 4.7445 42.2765 4.58394C42.1229 4.42338 42.0363 4.2103 42.0343 3.9881V3.7029C42.0304 3.52446 42.0801 3.34893 42.177 3.199C42.2884 3.04371 42.4191 2.90325 42.566 2.781C42.7365 2.66349 42.9386 2.60051 43.1456 2.6004H44.134C44.341 2.60051 44.5431 2.66349 44.7135 2.781C44.873 2.9161 45.0164 3.06914 45.1407 3.2371C45.1924 3.30179 45.2369 3.37186 45.2735 3.4461L44.78 3.617C44.669 3.42129 44.5125 3.25515 44.3238 3.1326C44.2748 3.10458 44.2187 3.09135 44.1622 3.0945H43.1554C43.0961 3.09141 43.037 3.10458 42.9845 3.1326C42.8146 3.23447 42.6739 3.37844 42.5758 3.5506C42.5547 3.60159 42.5451 3.65658 42.5475 3.7117V3.9969C42.5525 4.09013 42.5923 4.17808 42.6592 4.24323C42.7261 4.30837 42.815 4.34593 42.9083 4.3484L44.4757 4.4724C44.6977 4.48418 44.9067 4.58015 45.0603 4.74075C45.214 4.90134 45.3005 5.11448 45.3024 5.3367V5.6785C45.3064 5.85695 45.2567 6.03247 45.1599 6.1824V6.1824Z" fill="white"/>
<path d="M49.5964 6.1824C49.4848 6.33772 49.3539 6.47818 49.2068 6.6004C49.0364 6.71805 48.8342 6.78105 48.6272 6.781H47.4875C47.2804 6.78105 47.0783 6.71805 46.9079 6.6004C46.7512 6.46888 46.6109 6.31905 46.49 6.1541C46.4417 6.0836 46.3972 6.01056 46.3567 5.93529L46.8508 5.7644C46.9582 5.95977 47.1115 6.12603 47.2976 6.2488C47.35 6.27682 47.4091 6.28999 47.4685 6.2869H48.6179C48.6743 6.28999 48.7304 6.27677 48.7795 6.2488C48.9524 6.14345 49.0961 5.9964 49.1975 5.8211C49.2186 5.77009 49.2283 5.71506 49.2258 5.6599V5.3182C49.2208 5.22499 49.1809 5.13706 49.1141 5.07192C49.0472 5.00677 48.9583 4.96917 48.865 4.9666L47.2976 4.85229C47.0757 4.84046 46.8667 4.74448 46.7131 4.58392C46.5595 4.42336 46.4729 4.21029 46.4709 3.9881V3.7029C46.467 3.52446 46.5166 3.34894 46.6135 3.199C46.7249 3.04369 46.8557 2.90323 47.0027 2.781C47.1731 2.66348 47.3752 2.6005 47.5822 2.6004H48.5705C48.7775 2.6005 48.9797 2.66348 49.1501 2.781C49.3096 2.91612 49.4529 3.06916 49.5774 3.2371C49.629 3.30184 49.6735 3.37191 49.7102 3.4461L49.2165 3.617C49.1055 3.42132 48.9491 3.25518 48.7605 3.1326C48.7114 3.10458 48.6552 3.09135 48.5988 3.0945H47.592C47.5326 3.09142 47.4735 3.10459 47.4211 3.1326C47.2512 3.23452 47.1104 3.37848 47.0124 3.5506C46.9913 3.60159 46.9816 3.65658 46.9841 3.7117V3.9969C46.989 4.09013 47.0288 4.17808 47.0957 4.24323C47.1626 4.30837 47.2515 4.34593 47.3449 4.3484L48.9123 4.4724C49.1342 4.48418 49.3433 4.58015 49.4969 4.74074C49.6505 4.90134 49.7371 5.11448 49.739 5.3367V5.6785C49.7429 5.85695 49.6932 6.03247 49.5964 6.1824V6.1824Z" fill="white"/>
<path d="M55.8099 6.73318L55.7532 6.25858C55.6423 6.37625 55.5214 6.48406 55.3919 6.58078C55.2607 6.69346 55.0981 6.76332 54.9261 6.78098H54.0902C53.8828 6.78403 53.6799 6.72076 53.5111 6.60038C53.359 6.46412 53.2191 6.31478 53.0931 6.15408C52.996 6.00425 52.9463 5.82866 52.9505 5.65018V5.45978C52.9451 5.28142 52.9949 5.10575 53.0931 4.95678C53.2191 4.79607 53.359 4.64673 53.5111 4.51048C53.6799 4.39009 53.8828 4.32682 54.0902 4.32988H55.7435V3.74978C55.7452 3.69858 55.7386 3.64745 55.7239 3.59838C55.6099 3.40995 55.4538 3.25051 55.2679 3.13258C55.2154 3.10462 55.1563 3.09145 55.097 3.09448H54.2044C54.1478 3.0914 54.0916 3.10462 54.0423 3.13258C53.8606 3.25899 53.7059 3.42033 53.5872 3.60718L53.0931 3.44608C53.1351 3.36967 53.1827 3.29652 53.2357 3.22727C53.3601 3.05949 53.5032 2.9065 53.6624 2.77127C53.8292 2.6546 54.0292 2.59468 54.2327 2.60038H55.1068C55.3171 2.59752 55.523 2.66068 55.6956 2.78098C55.8593 2.90763 56.0032 3.05805 56.1224 3.22727C56.2211 3.37965 56.268 3.55981 56.2562 3.74098V6.05838L56.3226 6.73318H55.8099ZM55.7435 5.67848V4.82399H54.0989C54.0398 4.82035 53.9809 4.83357 53.929 4.86209C53.7491 4.97319 53.599 5.12635 53.4915 5.30839C53.47 5.35585 53.4603 5.40778 53.4632 5.45979V5.65019C53.4603 5.70248 53.47 5.7547 53.4915 5.80249C53.5995 5.98413 53.7495 6.13719 53.929 6.24879C53.981 6.27685 54.0398 6.29003 54.0989 6.28689H54.8978C54.9436 6.28731 54.9889 6.27765 55.0306 6.25859C55.3083 6.12055 55.5519 5.92238 55.7435 5.67848V5.67848Z" fill="white"/>
<path d="M60.132 3.60718C60.0097 3.42298 59.8552 3.26223 59.676 3.13258C59.6236 3.10463 59.5645 3.09146 59.5051 3.09448H59.0393C58.9904 3.09397 58.9418 3.1036 58.8967 3.12278C58.6165 3.26075 58.37 3.45882 58.175 3.70288V6.73318H57.6613V3.32299L57.6047 2.64819H58.1184L58.175 3.13259C58.2851 3.01113 58.406 2.9 58.5363 2.80059C58.6719 2.68938 58.8368 2.61984 59.011 2.60039H59.4856C59.693 2.59902 59.8957 2.66213 60.0656 2.78099C60.2223 2.91614 60.3626 3.06923 60.4836 3.23709C60.5403 3.31328 60.5969 3.39819 60.6262 3.44609L60.132 3.60718Z" fill="white"/>
<path d="M62.4583 3.14238V5.57399C62.4561 5.63556 62.466 5.69696 62.4875 5.75469C62.5917 5.93605 62.7386 6.08925 62.9154 6.20099C62.9744 6.22899 63.0395 6.24204 63.1048 6.23899H63.7034V6.73319H63.0949C62.8878 6.73472 62.6854 6.67154 62.5159 6.55249C62.3563 6.41769 62.2131 6.26464 62.0891 6.09649C61.9922 5.94693 61.9425 5.77167 61.9465 5.59349V3.14239H61.2708V2.64819H61.9465V1.03299H62.4583V2.64819H63.7132V3.14239L62.4583 3.14238Z" fill="white"/>
<path d="M67.8176 6.1824C67.7058 6.33784 67.5745 6.47832 67.427 6.6004C67.2569 6.71818 67.0548 6.7812 66.8479 6.781H65.7082C65.501 6.7809 65.2987 6.71792 65.1281 6.6004C64.9717 6.46861 64.8314 6.31881 64.7102 6.1541C64.6633 6.0779 64.5969 5.9822 64.5774 5.93529L65.0715 5.7644C65.179 5.95979 65.3326 6.12605 65.5188 6.2488C65.5708 6.27688 65.6296 6.29006 65.6887 6.2869H66.8391C66.8953 6.28999 66.9513 6.27676 67.0002 6.2488C67.1731 6.14345 67.3168 5.99639 67.4182 5.8211C67.439 5.77002 67.4487 5.71504 67.4465 5.6599V5.3182C67.4414 5.22494 67.4014 5.13701 67.3345 5.07187C67.2676 5.00673 67.1786 4.96915 67.0852 4.9666L65.5188 4.85229C65.2968 4.84064 65.0876 4.74474 64.9339 4.58415C64.7802 4.42357 64.6935 4.21039 64.6916 3.9881V3.7029C64.6879 3.52449 64.7376 3.34904 64.8342 3.199C64.9457 3.0436 65.0766 2.90312 65.2238 2.781C65.3941 2.6635 65.596 2.60051 65.8029 2.6004H66.7912C66.9981 2.6005 67.2 2.66348 67.3703 2.781C67.5299 2.91612 67.6735 3.06916 67.7981 3.2371C67.8495 3.30197 67.894 3.37201 67.9309 3.4461L67.4367 3.617C67.326 3.42145 67.1699 3.25533 66.9817 3.1326C66.9324 3.10463 66.8761 3.09141 66.8195 3.0945H65.8127C65.7533 3.09136 65.6942 3.10454 65.6418 3.1326C65.472 3.2344 65.3313 3.3784 65.2336 3.5506C65.2119 3.60143 65.2019 3.65649 65.2043 3.7117V3.9969C65.2094 4.09015 65.2494 4.17806 65.3163 4.24318C65.3833 4.3083 65.4722 4.34586 65.5656 4.3484L67.133 4.4724C67.355 4.48409 67.5642 4.58001 67.7179 4.74061C67.8716 4.90122 67.9583 5.11441 67.9602 5.3367V5.6785C67.9639 5.85692 67.9142 6.03237 67.8176 6.1824V6.1824Z" fill="white"/>
<path d="M74.0579 6.60039C73.8883 6.71926 73.6859 6.78238 73.4788 6.78099H72.509C72.2992 6.78252 72.0939 6.71947 71.9211 6.60039C71.7615 6.46532 71.618 6.31227 71.4934 6.14428C71.3995 5.9935 71.3532 5.81789 71.3606 5.64039V3.741C71.3532 3.5635 71.3995 3.38789 71.4934 3.2371C71.618 3.06913 71.7615 2.91609 71.9211 2.781C72.0939 2.66192 72.2992 2.59887 72.509 2.6004H73.4504C73.6576 2.59887 73.86 2.662 74.0295 2.781C74.2554 2.97044 74.4453 3.19903 74.5901 3.4558L74.0959 3.617C73.9854 3.42099 73.8289 3.25475 73.6399 3.1326C73.5876 3.10444 73.5284 3.09125 73.469 3.0945H72.5188C72.4597 3.09135 72.4009 3.10453 72.3488 3.1326C72.1655 3.25088 72.0123 3.41039 71.9016 3.5984C71.8803 3.64934 71.8706 3.70442 71.8733 3.7596V5.6219C71.8706 5.67704 71.8803 5.7321 71.9016 5.783C72.0088 5.97055 72.1587 6.13015 72.3391 6.2488C72.3912 6.27686 72.45 6.29004 72.509 6.2869H73.4973C73.557 6.28991 73.6164 6.27675 73.6692 6.2488C73.852 6.13042 74.0045 5.97089 74.1145 5.783L74.1242 5.7644L74.6184 5.93529C74.4788 6.19284 74.288 6.41916 74.0579 6.60039V6.60039Z" fill="white"/>
<path d="M78.8078 6.14428C78.6839 6.31247 78.5407 6.46556 78.3811 6.60039C78.2079 6.71947 78.0024 6.78251 77.7922 6.78099H76.842C76.6318 6.78236 76.4263 6.71934 76.2531 6.60039C76.0935 6.4653 75.9499 6.31225 75.8254 6.14428C75.7319 5.9933 75.6856 5.81783 75.6926 5.64039V3.741C75.6856 3.56355 75.7319 3.38808 75.8254 3.2371C75.95 3.06916 76.0935 2.91611 76.2531 2.781C76.4263 2.66205 76.6318 2.59902 76.842 2.6004H77.7922C78.0023 2.59887 78.2079 2.66191 78.3811 2.781C78.5406 2.91585 78.6838 3.06893 78.8078 3.2371C78.902 3.38779 78.9487 3.5634 78.9416 3.741V5.6404C78.9487 5.81799 78.902 5.99359 78.8078 6.14428V6.14428ZM78.4289 3.75959C78.4339 3.70508 78.4273 3.65013 78.4094 3.59839C78.2954 3.40994 78.1393 3.25049 77.9533 3.13259C77.9008 3.10462 77.8418 3.09145 77.7824 3.09449H76.8508C76.7917 3.09134 76.733 3.10452 76.6809 3.13259C76.4975 3.25083 76.3443 3.41035 76.2336 3.59839C76.2128 3.64948 76.2031 3.70445 76.2053 3.75959V5.62189C76.2031 5.67699 76.2128 5.73193 76.2336 5.78299C76.3443 5.97102 76.4975 6.13054 76.6809 6.24879C76.733 6.27685 76.7917 6.29003 76.8508 6.28689H77.7824C77.8418 6.28992 77.9008 6.27675 77.9533 6.24879C78.1393 6.13089 78.2954 5.97144 78.4094 5.78299C78.4273 5.73129 78.4339 5.67636 78.4289 5.62189V3.75959Z" fill="white"/>
<path d="M82.9309 6.73319L82.8742 6.25859C82.7672 6.37665 82.6496 6.48452 82.5227 6.58079C82.387 6.69184 82.2223 6.76135 82.0481 6.78099H81.3352C81.125 6.78238 80.9195 6.71935 80.7463 6.60039C80.5867 6.46556 80.4434 6.31248 80.3195 6.14428C80.2252 5.99359 80.1786 5.81798 80.1858 5.64039V2.64819H80.6985V5.62189C80.6934 5.67637 80.7001 5.73129 80.718 5.78299C80.8319 5.97142 80.988 6.13086 81.174 6.24879C81.2264 6.27674 81.2855 6.28991 81.3449 6.28689H82.0188C82.0649 6.28753 82.1106 6.27786 82.1526 6.25859C82.4257 6.1182 82.6679 5.92425 82.8645 5.68828V2.64819H83.3781V6.05839L83.4445 6.73319H82.9309Z" fill="white"/>
<path d="M87.4719 6.73318V3.75958C87.4767 3.70515 87.4704 3.6503 87.4533 3.59838C87.3396 3.40974 87.1835 3.25024 86.9973 3.13258C86.9449 3.10452 86.8858 3.09134 86.8264 3.09448H86.1516C86.1058 3.09405 86.0604 3.10371 86.0188 3.12278C85.7451 3.26287 85.5026 3.4569 85.3059 3.69318V6.73318H84.7932V3.32299L84.7268 2.64819H85.2395L85.2961 3.12279C85.4038 3.00548 85.5215 2.89768 85.6477 2.80059C85.7838 2.68968 85.9489 2.62019 86.1233 2.60039H86.8352C87.0456 2.59901 87.2514 2.66203 87.425 2.78099C87.5846 2.91611 87.7282 3.06915 87.8528 3.23709C87.9463 3.38807 87.9925 3.56355 87.9856 3.74099V6.73319L87.4719 6.73318Z" fill="white"/>
<path d="M91.9944 6.60038C91.8248 6.71923 91.6224 6.78235 91.4153 6.78098H90.4455C90.2354 6.78237 90.0299 6.71934 89.8567 6.60038C89.697 6.46532 89.5535 6.31227 89.4289 6.14427C89.3354 5.9933 89.2892 5.81783 89.2961 5.64038V3.74099C89.2892 3.56355 89.3354 3.38807 89.4289 3.23709C89.5535 3.06913 89.697 2.91608 89.8567 2.78099C90.0299 2.66204 90.2354 2.59901 90.4455 2.60039H91.386C91.5934 2.59902 91.7961 2.66213 91.966 2.78099C92.1919 2.97042 92.3818 3.199 92.5266 3.45579L92.0324 3.61699C91.9213 3.42137 91.7649 3.25526 91.5764 3.13259C91.5239 3.10464 91.4648 3.09147 91.4055 3.09449H90.4553C90.3959 3.09135 90.3368 3.10453 90.2844 3.13259C90.101 3.25087 89.9478 3.41038 89.8371 3.59839C89.8166 3.64957 89.8073 3.70453 89.8098 3.75959V5.62189C89.8073 5.67693 89.8166 5.73185 89.8371 5.78299C89.9442 5.97051 90.0941 6.13009 90.2746 6.24879C90.327 6.27685 90.3861 6.29003 90.4455 6.28689H91.4338C91.4932 6.29003 91.5523 6.27685 91.6047 6.24879C91.788 6.13072 91.9409 5.97115 92.051 5.78299L92.0608 5.76439L92.5549 5.93528C92.4146 6.19239 92.224 6.4186 91.9944 6.60038V6.60038Z" fill="white"/>
<path d="M93.7229 1.59348V0.986084H94.3117V1.59348H93.7229ZM93.761 6.73318V2.64818H94.2746V6.73318H93.761Z" fill="white"/>
<path d="M95.7746 6.73318C95.7372 6.55735 95.7089 6.37971 95.6897 6.20098V1.03299H96.2024V6.08669C96.2024 6.29669 96.2688 6.52419 96.2883 6.73319L95.7746 6.73318Z" fill="white"/>
<path d="M23.6775 25.448H21.2551V23.0125H18.3923V23.3875C18.374 23.7854 18.4389 24.1827 18.5829 24.5541C18.7268 24.9255 18.9467 25.2628 19.2284 25.5444C19.5101 25.826 19.8474 26.0457 20.2188 26.1895C20.5903 26.3334 20.9876 26.3981 21.3855 26.3797H23.5329C23.9309 26.3983 24.3284 26.3337 24.7 26.1899C25.0716 26.0461 25.4091 25.8264 25.6909 25.5448C25.9727 25.2632 26.1927 24.9259 26.3368 24.5544C26.4809 24.183 26.5459 23.7855 26.5276 23.3875V23.0125H23.6775V25.448ZM23.5329 17.4051H21.3855C20.9876 17.3869 20.5903 17.4519 20.2189 17.5959C19.8476 17.7399 19.5103 17.9597 19.2286 18.2414C18.947 18.523 18.7271 18.8603 18.5831 19.2316C18.4391 19.603 18.3741 20.0003 18.3923 20.3982V20.741H21.2336V18.3387H23.6775V20.741H26.5276V20.3982C26.5457 20.0002 26.4806 19.6028 26.3365 19.2313C26.1924 18.8599 25.9724 18.5226 25.6906 18.2409C25.4088 17.9593 25.0714 17.7395 24.6999 17.5956C24.3284 17.4516 23.9309 17.3868 23.5329 17.4051V17.4051Z" fill="white"/>
<path d="M5.57987 24.4451H3.43147C3.28761 24.4668 3.14066 24.4544 3.00247 24.4089C2.86428 24.3634 2.7387 24.2861 2.63584 24.1832C2.53298 24.0803 2.45573 23.9547 2.4103 23.8165C2.36487 23.6783 2.35253 23.5313 2.37427 23.3875V20.3982C2.35265 20.2545 2.3651 20.1076 2.4106 19.9696C2.45611 19.8315 2.53341 19.7061 2.63627 19.6034C2.73914 19.5007 2.86469 19.4236 3.00281 19.3783C3.14093 19.333 3.28776 19.3208 3.43147 19.3426H5.57987C5.72287 19.3243 5.86817 19.339 6.00461 19.3856C6.14106 19.4321 6.26501 19.5093 6.36699 19.6112C6.46896 19.7131 6.54623 19.8371 6.59288 19.9735C6.63952 20.1099 6.65431 20.2552 6.63608 20.3982V23.3875C6.65426 23.5306 6.63947 23.6759 6.59284 23.8124C6.54621 23.9489 6.46898 24.073 6.36705 24.175C6.26512 24.2771 6.1412 24.3545 6.00476 24.4013C5.86832 24.4481 5.72299 24.4631 5.57987 24.4451V24.4451ZM5.57987 17.3562H3.43147C3.02705 17.3375 2.62317 17.4034 2.24565 17.5496C1.86814 17.6959 1.5253 17.9193 1.23904 18.2056C0.952788 18.4919 0.729421 18.8348 0.58322 19.2123C0.437019 19.5899 0.371199 19.9938 0.389971 20.3982V29.8484L2.37427 29.8504V26.2264C2.37917 26.2449 2.45727 26.2703 2.45727 26.2703C2.77246 26.3706 3.10073 26.4239 3.43147 26.4285H5.57987C5.98427 26.4474 6.38817 26.3818 6.76573 26.2356C7.14329 26.0895 7.48618 25.8662 7.77247 25.58C8.05877 25.2937 8.28214 24.9509 8.42832 24.5733C8.5745 24.1958 8.64025 23.7919 8.62137 23.3875V20.3982C8.6401 19.9938 8.57425 19.5899 8.42804 19.2124C8.28182 18.8349 8.05845 18.492 7.77221 18.2057C7.48596 17.9194 7.14314 17.696 6.76565 17.5497C6.38815 17.4034 5.98429 17.3375 5.57987 17.3562V17.3562Z" fill="white"/>
<path d="M34.591 17.3562H32.4431C32.1123 17.3651 31.7846 17.4224 31.4704 17.5262L31.3664 17.5545V14.1043H29.4167L29.4026 26.4285H31.3664V20.3982C31.3512 20.254 31.3688 20.1083 31.4179 19.9718C31.467 19.8354 31.5462 19.7118 31.6498 19.6103C31.7533 19.5088 31.8784 19.432 32.0158 19.3857C32.1532 19.3393 32.2992 19.3246 32.4431 19.3426H34.591C34.7347 19.3206 34.8816 19.3328 35.0198 19.378C35.158 19.4233 35.2836 19.5004 35.3866 19.6031C35.4895 19.7058 35.5668 19.8313 35.6123 19.9694C35.6578 20.1075 35.6703 20.2544 35.6486 20.3982V26.4285H37.633V20.3982C37.6517 19.9937 37.5858 19.5898 37.4396 19.2123C37.2933 18.8347 37.0699 18.4919 36.7836 18.2056C36.4973 17.9193 36.1544 17.6959 35.7769 17.5496C35.3993 17.4033 34.9954 17.3375 34.591 17.3562V17.3562Z" fill="white"/>
<path d="M88.346 26.4285H90.3138V17.3582L88.345 17.3562L88.346 26.4285ZM90.3138 14.116H88.346L88.345 16.2029H90.3138V14.116Z" fill="white"/>
<path d="M85.2678 19.3426L85.2707 17.3582L82.5725 17.3562V14.116H80.591L80.588 17.3582L78.8536 17.3562V19.3426H80.591L80.588 23.3875C80.5648 23.7932 80.6276 24.1992 80.7724 24.5789C80.9171 24.9586 81.1406 25.3034 81.4281 25.5906C81.7156 25.8778 82.0605 26.1009 82.4404 26.2453C82.8202 26.3897 83.2263 26.4522 83.632 26.4285H85.2355V24.4598L83.632 24.4607C83.4869 24.4808 83.3392 24.4668 83.2005 24.4197C83.0618 24.3727 82.936 24.2939 82.8332 24.1897C82.7303 24.0855 82.6531 23.9587 82.6079 23.8195C82.5626 23.6802 82.5505 23.5323 82.5724 23.3875V19.3426L85.2678 19.3426Z" fill="white"/>
<path d="M54.5627 24.4607C54.4179 24.4805 54.2704 24.4663 54.132 24.4191C53.9937 24.3719 53.8682 24.2931 53.7657 24.1888C53.6632 24.0846 53.5864 23.9579 53.5415 23.8188C53.4966 23.6797 53.4848 23.532 53.507 23.3875V14.1238H51.5363L51.5344 23.3875C51.5094 23.7923 51.5704 24.1977 51.7136 24.5772C51.8567 24.9566 52.0787 25.3014 52.3649 25.5888C52.6511 25.8762 52.9949 26.0996 53.3738 26.2443C53.7526 26.3891 54.1578 26.4518 54.5627 26.4285H56.1916V24.4598L54.5627 24.4607Z" fill="white"/>
<path d="M14.1828 17.364C13.7773 17.3406 13.3713 17.4032 12.9917 17.5478C12.612 17.6923 12.2672 17.9155 11.9799 18.2027C11.6925 18.4898 11.4692 18.8345 11.3244 19.2141C11.1797 19.5936 11.1168 19.9995 11.1399 20.4051V26.4285H13.1252V20.4051C13.1037 20.2613 13.1163 20.1145 13.1618 19.9764C13.2074 19.8383 13.2847 19.7128 13.3875 19.61C13.4904 19.5073 13.6159 19.4301 13.7541 19.3846C13.8922 19.3392 14.039 19.3268 14.1828 19.3484H16.5681V17.366L14.1828 17.364Z" fill="white"/>
<path d="M64.3606 17.365L63.4758 20.5066L62.5305 23.9129C62.3703 24.4578 62.3586 24.5027 61.9651 24.5027C61.5783 24.5027 61.5598 24.4685 61.4328 24.0203L59.5774 17.365H57.507L59.503 24.4676C59.9308 25.9578 60.5753 26.4871 61.965 26.4871C63.3546 26.4871 64.0021 25.948 64.4308 24.4285L66.4152 17.365H64.3606Z" fill="white"/>
<path d="M43.5197 19.2293H45.6682C45.8271 19.2071 45.9889 19.222 46.1409 19.2729C46.293 19.3238 46.4312 19.4092 46.5448 19.5224C46.6583 19.6357 46.7441 19.7737 46.7953 19.9256C46.8466 20.0776 46.8619 20.2393 46.8401 20.3982V21.0047H42.3508V20.3982C42.3324 20.2402 42.35 20.0802 42.4022 19.9299C42.4544 19.7797 42.5399 19.6433 42.6524 19.5308C42.7648 19.4184 42.9013 19.3329 43.0515 19.2806C43.2017 19.2284 43.3618 19.2109 43.5197 19.2293V19.2293ZM45.6682 17.3562H43.5197C43.1154 17.3377 42.7117 17.4037 42.3344 17.5501C41.957 17.6964 41.6144 17.9199 41.3283 18.2062C41.0422 18.4924 40.8189 18.8353 40.6728 19.2127C40.5267 19.5901 40.461 19.9939 40.4797 20.3982V23.3875C40.4608 23.7918 40.5265 24.1956 40.6726 24.573C40.8186 24.9505 41.0419 25.2933 41.328 25.5795C41.6141 25.8657 41.9569 26.0891 42.3343 26.2353C42.7117 26.3815 43.1155 26.4473 43.5197 26.4285H48.2453V24.4598L43.4299 24.4607C43.2857 24.4771 43.1396 24.4605 43.0028 24.4121C42.8659 24.3637 42.7419 24.2849 42.64 24.1815C42.5381 24.0781 42.461 23.9529 42.4147 23.8153C42.3683 23.6778 42.3538 23.5315 42.3723 23.3875V22.867H47.3254C47.5082 22.8669 47.6891 22.8306 47.8577 22.7603C48.0264 22.69 48.1795 22.5871 48.3082 22.4574C48.4369 22.3277 48.5387 22.1738 48.6077 22.0046C48.6767 21.8354 48.7115 21.6542 48.7102 21.4715V20.3982C48.729 19.9938 48.6631 19.5898 48.5168 19.2123C48.3706 18.8348 48.1472 18.4919 47.8609 18.2056C47.5746 17.9193 47.2317 17.6959 46.8541 17.5496C46.4766 17.4034 46.0727 17.3375 45.6682 17.3562V17.3562Z" fill="white"/>
<path d="M70.3352 20.5848C70.3352 19.7605 70.7942 19.2293 71.5051 19.2293H73.6535C73.8122 19.2074 73.9737 19.2225 74.1256 19.2735C74.2774 19.3244 74.4153 19.4099 74.5286 19.5232C74.6418 19.6364 74.7273 19.7743 74.7783 19.9262C74.8293 20.078 74.8444 20.2396 74.8225 20.3982V21.0047H70.3352V20.5848ZM73.6535 17.3562H71.5051C71.1006 17.3375 70.6966 17.4033 70.319 17.5496C69.9414 17.6958 69.5985 17.9192 69.3121 18.2055C69.0257 18.4918 68.8022 18.8346 68.6558 19.2122C68.5095 19.5898 68.4435 19.9937 68.4621 20.3982V23.3875C68.4434 23.792 68.5093 24.196 68.6556 24.5735C68.8019 24.9511 69.0254 25.294 69.3118 25.5802C69.5983 25.8665 69.9413 26.0898 70.3189 26.2358C70.6966 26.3819 71.1006 26.4475 71.5051 26.4285H76.2287V24.4598L71.4153 24.4607C71.2711 24.477 71.1252 24.4603 70.9884 24.4119C70.8516 24.3635 70.7276 24.2846 70.6258 24.1812C70.5241 24.0778 70.4471 23.9526 70.4008 23.8151C70.3545 23.6776 70.3401 23.5314 70.3586 23.3875V22.8592H75.3117C75.494 22.8598 75.6746 22.8244 75.8431 22.7548C76.0116 22.6853 76.1646 22.583 76.2934 22.454C76.4221 22.325 76.524 22.1717 76.5932 22.0031C76.6624 21.8345 76.6975 21.6538 76.6965 21.4715V20.3982C76.715 19.9937 76.649 19.5898 76.5026 19.2123C76.3562 18.8348 76.1327 18.4919 75.8463 18.2057C75.56 17.9194 75.2171 17.696 74.8395 17.5497C74.4619 17.4035 74.058 17.3376 73.6535 17.3562V17.3562Z" fill="white"/>
<path d="M98.7395 24.5594H96.0647C95.0149 24.5594 94.8957 24.0467 94.8957 23.6609C94.8957 23.0144 95.0881 22.8465 95.9319 22.7625L99.0149 22.4295C99.0168 22.4295 99.4006 22.3426 99.4192 22.3387L99.4211 23.8933C99.4211 24.3592 99.2043 24.5594 98.7395 24.5594ZM98.2707 17.3562H94.2883V19.3426H98.2707C98.3926 19.3251 98.5168 19.3335 98.6352 19.3671C98.7536 19.4008 98.8636 19.459 98.9581 19.5379C99.0526 19.6168 99.1294 19.7147 99.1836 19.8252C99.2378 19.9358 99.2682 20.0565 99.2727 20.1795V20.3152C99.2512 20.4344 99.1574 20.5232 98.7678 20.5808L95.7522 20.8904C93.3772 21.1473 93.0227 22.7342 93.0227 23.6609C93.0213 24.0484 93.1013 24.432 93.2574 24.7868C93.4135 25.1415 93.6423 25.4596 93.9289 25.7204C94.2156 25.9812 94.5538 26.179 94.9217 26.301C95.2896 26.4229 95.679 26.4664 96.0647 26.4285H98.7395C99.0765 26.4441 99.4131 26.3892 99.7276 26.2673C100.042 26.1454 100.328 25.9592 100.566 25.7206C100.805 25.4819 100.991 25.1961 101.112 24.8815C101.234 24.5668 101.289 24.2302 101.273 23.8933V20.3982C101.294 19.9965 101.231 19.5948 101.089 19.2187C100.946 18.8426 100.726 18.5005 100.444 18.2142C100.161 17.9279 99.8218 17.7037 99.4476 17.556C99.0735 17.4082 98.6727 17.3402 98.2707 17.3562V17.3562Z" fill="white"/>
</svg>
