<?xml version="1.0" standalone="no"?>
<!DOCTYPE svg PUBLIC "-//W3C//DTD SVG 20010904//EN"
 "http://www.w3.org/TR/2001/REC-SVG-20010904/DTD/svg10.dtd">
<svg version="1.0" xmlns="http://www.w3.org/2000/svg"
 width="310.000000pt" height="310.000000pt" viewBox="0 0 310.000000 310.000000"
 preserveAspectRatio="xMidYMid meet">
<metadata>
Created by potrace 1.14, written by Peter Selinger 2001-2017
</metadata>
<g transform="translate(0.000000,310.000000) scale(0.100000,-0.100000)"
fill="#000000" stroke="none">
<path d="M1548 2424 c-2 -1 -25 -3 -53 -5 -70 -4 -195 -44 -264 -84 -73 -43
-157 -119 -197 -177 -16 -24 -31 -45 -35 -48 -13 -12 -91 -190 -82 -190 3 0
-1 -7 -8 -17 -8 -9 -13 -19 -11 -22 3 -6 0 -30 -14 -101 -9 -44 -9 -284 0
-325 20 -96 31 -135 53 -189 14 -34 30 -67 35 -73 6 -7 7 -13 2 -13 -5 0 -1
-5 9 -11 9 -5 17 -15 17 -20 0 -6 6 -17 13 -24 29 -34 37 -45 37 -55 0 -6 4
-9 8 -6 4 2 17 -9 27 -25 11 -16 24 -29 29 -29 5 0 16 -8 25 -17 9 -10 30 -26
46 -35 17 -10 29 -22 28 -27 -2 -6 3 -8 11 -5 8 3 17 0 21 -5 3 -6 11 -9 16
-6 5 4 9 1 9 -5 0 -6 4 -9 9 -5 5 3 12 1 16 -5 4 -6 10 -8 15 -5 4 3 13 -1 19
-9 7 -8 21 -12 33 -8 17 4 20 2 14 -13 -5 -14 -4 -16 7 -6 14 11 67 12 67 1 0
-19 263 10 276 31 3 5 14 9 24 9 10 0 21 6 23 13 3 7 22 -5 50 -33 24 -25 64
-61 88 -80 23 -19 50 -42 59 -50 8 -8 28 -23 43 -33 15 -10 26 -21 23 -25 -2
-4 10 -8 26 -8 21 -1 40 8 63 30 18 17 45 43 61 57 41 37 105 109 97 109 -4 0
-2 5 5 12 8 8 2 16 -26 31 -65 35 -136 85 -172 121 -33 35 -33 37 -16 54 13
12 16 13 11 2 -5 -9 -4 -12 1 -7 5 5 9 12 9 15 1 16 63 91 70 84 5 -4 5 -1 1
6 -4 7 0 24 8 37 9 14 14 25 10 25 -4 0 -1 6 5 14 7 8 14 27 17 43 3 15 9 44
14 63 43 172 29 490 -28 643 -79 209 -228 340 -439 382 -69 14 -199 26 -205
19z m99 -348 c36 -3 102 -34 127 -59 25 -26 68 -87 61 -87 -4 0 -3 -6 2 -12
30 -38 45 -129 48 -284 2 -131 -10 -244 -27 -244 -5 0 -6 -4 -3 -10 3 -5 1
-10 -5 -10 -7 0 -32 45 -58 100 -25 55 -50 100 -55 100 -5 0 -58 -32 -118 -72
-72 -47 -108 -76 -106 -87 3 -16 8 -26 47 -91 11 -19 23 -43 26 -52 4 -10 11
-18 18 -18 6 0 4 -5 -4 -10 -24 -15 -114 -12 -149 6 -77 39 -154 161 -166 267
-2 9 -4 18 -5 20 -15 14 -16 230 -1 287 16 60 58 146 85 170 58 54 71 62 92
59 4 0 10 5 14 12 5 6 30 12 58 13 27 1 48 5 45 10 -3 4 4 5 15 2 12 -4 38 -8
59 -10z"/>
<path d="M582 2164 c-42 -44 -124 -135 -181 -202 -57 -67 -109 -118 -114 -115
-6 3 -7 1 -3 -5 4 -7 -25 -49 -68 -100 -41 -48 -75 -97 -75 -107 0 -11 -1 -77
-2 -146 -1 -125 5 -174 20 -164 5 2 34 -9 65 -25 31 -15 60 -29 64 -30 4 -1 6
-6 4 -12 -1 -5 2 -7 8 -3 6 3 23 0 38 -8 83 -42 188 -100 192 -106 3 -4 27
-18 54 -31 27 -13 57 -31 67 -41 13 -13 20 -15 27 -6 10 13 27 98 38 192 13
107 11 128 -14 148 -12 10 -19 23 -16 29 4 7 2 8 -4 4 -7 -4 -32 7 -56 23 -25
17 -47 31 -51 31 -3 0 -31 16 -61 35 -30 19 -55 35 -57 34 -1 0 -10 3 -19 6
-13 5 -15 12 -9 23 16 29 52 63 60 57 5 -2 8 3 7 13 0 10 6 17 15 16 9 -1 16
4 15 11 -2 19 165 195 178 188 6 -3 8 -2 3 2 -9 10 43 66 54 59 5 -3 6 1 3 9
-3 8 2 17 10 20 29 12 18 62 -40 183 -8 16 -28 46 -45 65 l-29 34 -78 -81z"/>
<path d="M2528 2213 c-33 -37 -88 -119 -88 -132 0 -6 -4 -11 -8 -11 -4 0 -13
-13 -19 -29 -12 -32 -9 -37 85 -136 20 -21 36 -43 35 -47 -2 -4 2 -7 9 -5 7 1
17 -8 23 -20 5 -13 13 -23 17 -23 8 0 91 -87 96 -101 2 -5 -64 -78 -148 -162
-162 -162 -160 -159 -145 -247 12 -73 12 -74 18 -90 3 -8 10 -36 17 -62 7 -26
19 -49 27 -52 8 -3 12 -2 9 3 -3 5 8 14 24 21 17 7 30 16 30 21 0 5 7 9 15 9
8 0 15 5 15 11 0 6 7 9 15 5 8 -3 14 -1 12 4 -3 12 95 80 106 73 6 -3 7 -1 3
5 -4 6 4 16 16 23 13 7 25 15 28 18 14 19 68 49 75 43 5 -4 5 -2 2 5 -4 7 8
21 30 34 21 13 49 34 63 46 14 12 29 21 33 20 5 -1 13 6 18 16 6 9 13 16 17
13 8 -5 7 82 -1 90 -3 4 -2 16 3 29 5 13 6 25 3 28 -3 3 -6 58 -7 122 l-2 115
-54 57 c-145 150 -331 333 -338 333 -5 0 -20 -12 -34 -27z"/>
</g>
</svg>
