<svg width="1382" height="154" viewBox="0 0 1382 154" fill="none" xmlns="http://www.w3.org/2000/svg">
<path d="M162.097 32.8001C146.097 12.2001 119.897 0.600098 87.0969 0.600098C63.4969 0.600098 42.2969 7.8001 26.8969 20.4001C9.09692 35.0001 0.0969238 54.2001 0.0969238 77.2001C0.0969238 106 14.0969 129.4 39.2969 142.6C53.6969 150.2 70.0969 154 88.8969 154C122.097 154 147.097 143.4 161.297 124.6L150.497 117.6C136.097 134.2 115.497 141.6 87.0969 141.6C43.2969 141.6 13.8969 115.4 13.8969 77.2001C13.8969 57.4001 21.6969 41.2001 37.2969 28.8001C49.8969 18.8001 67.8969 12.8001 87.0969 12.8001C113.897 12.8001 134.297 20.4001 150.497 37.4001L162.097 32.8001Z" fill="white"/>
<path d="M335.006 88.2001C335.006 68.8001 327.006 52.4001 311.606 40.0001C298.406 29.2001 279.806 22.8001 259.606 22.8001C239.406 22.8001 220.806 29.2001 207.606 40.0001C192.206 52.4001 184.406 68.8001 184.406 88.2001C184.406 108 192.206 124.2 207.406 136.6C220.606 147.2 239.006 153.6 259.606 153.6C280.406 153.6 298.806 147.4 312.006 136.8C327.206 124.4 335.006 108 335.006 88.2001ZM321.006 89.4001C321.006 119.2 296.606 141 259.606 141C222.606 141 198.406 119.2 198.406 89.8001C198.406 58.2001 223.206 35.2001 259.606 35.2001C296.006 35.2001 321.006 58.2001 321.006 89.4001Z" fill="white"/>
<path d="M445.522 27.0001H371.322V150H449.722C467.122 150 482.522 144 493.922 133C505.522 121.8 511.722 106.6 511.722 89.8001C511.722 51.2001 486.522 27.0001 445.522 27.0001ZM450.522 137.4H384.322V39.6001H447.322C477.122 39.6001 496.922 59.4001 496.922 89.2001C496.922 99.0001 494.322 108.6 489.122 116.8C481.322 129.2 466.522 137.4 450.522 137.4Z" fill="white"/>
<path d="M670.656 150V137.4H562.056V91.2001H634.256V78.6001H562.056V39.6001H665.856V27.0001H549.056V150H670.656Z" fill="white"/>
<path d="M803.331 48.0001L810.931 38.2001C795.331 28.6001 774.931 23.6001 750.531 23.6001C711.531 23.6001 690.131 37.2001 690.131 59.6001C690.131 84.8001 711.731 88.8001 755.731 90.6001C789.131 92.0001 805.531 96.2001 805.531 114.2C805.531 130 787.931 140.6 756.331 140.6C733.131 140.6 713.331 135.4 694.331 123.4L686.931 134C704.531 146.4 727.531 152.8 756.131 152.8C797.931 152.8 820.531 138 820.531 113C820.531 86.0001 799.331 80.0001 754.931 78.2001C721.131 77.0001 705.131 73.4001 705.131 57.2001C705.131 43.4001 720.531 35.8001 750.331 35.8001C769.931 35.8001 786.931 39.4001 803.331 48.0001Z" fill="white"/>
<path d="M1018.08 150V27.0001H999.683L937.283 107L874.483 27.0001H856.283V150H869.283V39.4001H869.683L937.283 126.4L1004.68 40.4001H1005.08V150H1018.08Z" fill="white"/>
<path d="M1075.92 150V27.0001H1062.92V150H1075.92Z" fill="white"/>
<path d="M1228.18 39.6001V27.0001H1097.58V39.6001H1156.38V150H1169.38V39.6001H1228.18Z" fill="white"/>
<path d="M1381.64 150V27.0001H1368.64V78.6001H1262.64V27.0001H1249.64V150H1262.64V91.2001H1368.64V150H1381.64Z" fill="white"/>
</svg>
