<svg width="180" height="50" viewBox="0 0 180 50" fill="none" xmlns="http://www.w3.org/2000/svg">
<path d="M30.878 18.325V23.579H28.251V38.971H21.924V23.579H20V18.325H21.924V17.548C21.924 14.9333 22.6147 13.0217 23.996 11.813C25.402 10.6043 27.5973 10 30.582 10V15.365C29.7433 15.365 29.139 15.5253 28.769 15.846C28.4237 16.1667 28.251 16.734 28.251 17.548V18.325H30.878Z" fill="white"/>
<path d="M47.9697 32.422C48.8824 31.534 49.3387 30.276 49.3387 28.648C49.3387 27.02 48.8824 25.7743 47.9697 24.911C47.057 24.023 46.0087 23.579 44.8247 23.579C43.6407 23.579 42.5924 24.023 41.6797 24.911C40.767 25.799 40.3107 27.057 40.3107 28.685C40.3107 30.313 40.767 31.571 41.6797 32.459C42.5924 33.3223 43.6407 33.754 44.8247 33.754C46.0087 33.754 47.057 33.31 47.9697 32.422ZM36.6107 36.27C34.7854 34.2967 33.8727 31.7683 33.8727 28.685C33.8727 25.6017 34.7854 23.0733 36.6107 21.1C38.436 19.102 40.656 18.103 43.2707 18.103C45.91 18.103 47.9327 19.0773 49.3387 21.026V18.325H55.6657H58.3574V25H55.6657V32H58.3574V39L55.6657 38.971H49.3387V35.974C47.8094 38.1447 45.762 39.23 43.1967 39.23C40.6314 39.23 38.436 38.2433 36.6107 36.27Z" fill="white"/>
<path d="M72.1844 18.325V21.359C73.4918 19.1883 75.5761 18.103 78.4374 18.103C80.8054 18.103 82.7171 18.8923 84.1724 20.471C85.6524 22.0497 86.3924 24.1957 86.3924 26.909V38.971H80.1024V27.76C80.1024 26.428 79.7448 25.4043 79.0294 24.689C78.3388 23.949 77.3768 23.579 76.1434 23.579C74.9101 23.579 73.9358 23.949 73.2204 24.689C72.5298 25.4043 72.1844 26.428 72.1844 27.76V38.971H65.8574L63.3574 39V31.9855H65.8574V25H63.3574V18.325H65.8574H72.1844Z" fill="white"/>
<path d="M102.954 32.422C103.867 31.534 104.323 30.276 104.323 28.648C104.323 27.02 103.867 25.7743 102.954 24.911C102.042 24.023 100.993 23.579 99.8094 23.579C98.6254 23.579 97.5771 24.023 96.6644 24.911C95.7518 25.799 95.2954 27.057 95.2954 28.685C95.2954 30.313 95.7518 31.571 96.6644 32.459C97.5771 33.3223 98.6254 33.754 99.8094 33.754C100.993 33.754 102.042 33.31 102.954 32.422ZM91.5954 36.27C89.7701 34.2967 88.8574 31.7683 88.8574 28.685C88.8574 25.6017 89.7701 23.0733 91.5954 21.1C93.4208 19.102 95.6407 18.103 98.2554 18.103C100.895 18.103 102.917 19.0773 104.323 21.026V18.325H110.65V38.971H104.323V35.974C102.794 38.1447 100.747 39.23 98.1814 39.23C95.6161 39.23 93.4208 38.2433 91.5954 36.27Z" fill="white"/>
<path d="M121.946 38.971H115.619V11.591H121.946V26.946L128.347 18.325H136.857L128.014 28.87L136.857 38.971H128.458L121.946 30.72V38.971Z" fill="white"/>
<path d="M152.161 32.422C153.074 31.534 153.53 30.276 153.53 28.648C153.53 27.02 153.074 25.7743 152.161 24.911C151.249 24.023 150.2 23.579 149.016 23.579C147.832 23.579 146.784 24.023 145.871 24.911C144.959 25.799 144.502 27.057 144.502 28.685C144.502 30.313 144.959 31.571 145.871 32.459C146.784 33.3223 147.832 33.754 149.016 33.754C150.2 33.754 151.249 33.31 152.161 32.422ZM140.802 36.27C138.977 34.2967 138.064 31.7683 138.064 28.685C138.064 25.6017 138.977 23.0733 140.802 21.1C142.628 19.102 144.848 18.103 147.462 18.103C150.102 18.103 152.124 19.0773 153.53 21.026V18.325H159.857V38.971H153.53V35.974C152.001 38.1447 149.954 39.23 147.388 39.23C144.823 39.23 142.628 38.2433 140.802 36.27Z" fill="white"/>
</svg>
