<svg width="133" height="49" viewBox="0 0 133 49" fill="none" xmlns="http://www.w3.org/2000/svg">
<g clip-path="url(#clip0_3_10)">
<path d="M0.399902 44.5H29.9999V34.8H11.4999V0.200012H0.699902V44.5H0.399902ZM0.399902 44.5H29.9999V34.8H11.4999V0.200012H0.699902V44.5H0.399902Z" fill="white"/>
<path d="M46.7 48.3L68.4 5.10001L58.8 0.200012L37 43.4L46.7 48.3ZM71.8 48.3L93.6 5.10001L83.9 0.200012L62.1 43.4L71.8 48.3Z" fill="white"/>
<path d="M100.6 0.200012V44.5H111.4V28.7H118C127.8 28.7 133 21.7 133 14.5C133 7.20001 127.7 0.300012 118 0.300012H100.6V0.200012ZM111.5 10H117.6C120.6 10 122.3 12.2 122.3 14.5C122.3 16.8 120.6 19 117.6 19H111.5V10V10Z" fill="white"/>
</g>
<defs>
<clipPath id="clip0_3_10">
<rect width="132.6" height="48.1" fill="white" transform="translate(0.399902 0.200012)"/>
</clipPath>
</defs>
</svg>
