<svg width="186" height="48" viewBox="0 0 186 48" xmlns="http://www.w3.org/2000/svg"><path d="M61.718 25.702h3.04c.884 0 1.558-.242 2.02-.727.462-.485.693-1.108.693-1.87 0-.778-.23-1.415-.693-1.912-.462-.497-1.136-.746-2.02-.746h-3.04v5.255zm0 3.127v6H57.63V17.32h7.128c2.082 0 3.735.532 4.956 1.594 1.224 1.063 1.835 2.451 1.835 4.167 0 1.724-.611 3.113-1.835 4.167-1.221 1.053-2.874 1.58-4.956 1.58h-3.04zM87.675 17.32v11.472c0 1.996-.666 3.543-1.997 4.642-1.33 1.097-3.073 1.646-5.227 1.646-2.18 0-3.936-.549-5.271-1.646-1.335-1.099-2.003-2.646-2.003-4.642V17.32h4.089v11.472c0 1.074.278 1.87.832 2.387.555.516 1.34.775 2.353.775 1.004 0 1.778-.256 2.32-.77.544-.513.815-1.31.815-2.392V17.32h4.089zm6.624 14.382h7.997v3.126H89.28V33l7.852-12.554h-7.888V17.32h12.943v1.756l-7.89 12.627zm14.29 0h7.996v3.126h-13.013V33l7.852-12.554h-7.889V17.32h12.942v1.756l-7.888 12.627zm13.614 0h7.562v3.126h-11.651V17.32h4.09v14.383zm19.954-4.365h-6.887v4.365h8.117v3.126h-12.205V17.32h12.23v3.127h-8.142v3.764h6.887v3.127zm13.568 7.49h-4.065V17.32h4.065V34.83zm14.838-14.38h-4.632v14.38h-4.089v-14.38h-4.595V17.32h13.316v3.127zm14.88 8.237l.024.071c-.08 2.053-.69 3.62-1.827 4.703-1.14 1.082-2.789 1.622-4.952 1.622-2.17 0-3.935-.665-5.294-1.996-1.36-1.33-2.039-3.058-2.039-5.182v-3.656c0-2.116.653-3.842 1.96-5.176 1.307-1.335 3.004-2.003 5.096-2.003 2.22 0 3.915.558 5.088 1.671 1.176 1.115 1.838 2.698 1.991 4.75l-.023.073h-3.969c-.056-1.139-.311-1.984-.766-2.538-.454-.553-1.228-.83-2.32-.83-.926 0-1.654.371-2.185 1.113-.53.742-.795 1.714-.795 2.916v3.68c0 1.21.29 2.189.868 2.934.579.746 1.375 1.118 2.388 1.118.981 0 1.677-.26 2.087-.782.41-.52.643-1.35.699-2.488h3.969zM7.013 41.009c-9.35-9.323-9.35-24.437 0-33.76 9.35-9.32 24.51-9.32 33.86 0 9.35 9.324 9.35 24.436 0 33.759-9.35 9.322-24.51 9.323-33.86 0zm16.302-13.95s4.31-.607 5.555-3.006c1.246-2.397 2.713-7.256 2.713-7.256-6.635 0-7.227 2.317-7.227 2.317s-4.193 11.69-5.689 16.004c-11.62 0-9.762-5.722-9.762-5.722l5.812-16.255h11.775l-.786 2.34s.96-2.34 7.449-2.34c0 0 6.653.029 5.872 2.353-.78 2.323-3.29 9.293-3.29 9.293-.84 2.272-5.752 2.252-12.422 2.272z" fill="#FFF" fill-rule="evenodd"/></svg>