<svg width="21" height="16" viewBox="0 0 21 16" fill="none" xmlns="http://www.w3.org/2000/svg">
<path d="M18.01 7.04205L14.6414 11.9785L12.9221 9.34348L14.9043 6.37491C15.2729 5.84777 16.0621 4.38991 15.15 2.40491C14.4129 0.788482 12.8164 0.015625 11.4129 0.015625C10.0093 0.015625 8.48286 0.735624 7.65858 2.40491C6.72858 4.31991 7.53572 5.81277 7.88643 6.32277C7.88643 6.32277 8.99143 7.9392 9.90429 9.30919L11.3957 11.4699L13.6414 14.9135C13.6593 14.9313 14.01 15.4756 14.6414 15.4756C15.2379 15.4756 15.6064 14.9313 15.6593 14.8785L20.9221 7.07848H18.01V7.04348V7.04205ZM11.3957 7.16491C11.3957 7.16491 10.5186 5.82991 9.93929 4.89848C9.325 3.89705 10.0093 2.4042 11.3957 2.4042C12.7814 2.4042 13.4657 3.89777 12.8521 4.89848C12.2907 5.82991 11.3957 7.16491 11.3957 7.16491Z" fill="white"/>
<path d="M8.16787 11.8206L4.86929 7.18275C4.86929 7.18275 3.99215 5.84775 3.41286 4.91632C2.79858 3.91489 3.48286 2.42204 4.86929 2.42204C5.04501 2.42204 5.20286 2.43989 5.36072 2.49204L6.51858 0.366322C5.99215 0.13775 5.41358 0.0148926 4.88715 0.0148926C3.48358 0.0148926 1.95715 0.734893 1.13286 2.40418C0.202864 4.31918 1.01001 5.81204 1.36072 6.32204L7.13287 14.8778C7.18572 14.9478 7.55358 15.4928 8.16787 15.4928C8.78215 15.4928 9.13287 14.9656 9.18572 14.8956L10.9229 12.2428L9.43144 10.047L8.16858 11.8213L8.16787 11.8206Z" fill="white"/>
</svg>
